<mxfile host="65bd71144e">
    <diagram name="Modified Sensor digram" id="Mn4USuMzLWM8rDtGRMMw">
        <mxGraphModel dx="1531" dy="1048" grid="1" gridSize="10" guides="1" tooltips="1" connect="1" arrows="1" fold="1" page="0" pageScale="1" pageWidth="827" pageHeight="1169" math="0" shadow="0">
            <root>
                <mxCell id="UHO9wcKawVJonvP0M0y3-0"/>
                <mxCell id="UHO9wcKawVJonvP0M0y3-1" value="Background" style="locked=1;" parent="UHO9wcKawVJonvP0M0y3-0"/>
                <mxCell id="UHO9wcKawVJonvP0M0y3-5" value="Foreground" style="" parent="UHO9wcKawVJonvP0M0y3-0"/>
                <mxCell id="22ypedtZLx-DCweqtDK7-9" style="edgeStyle=none;shape=connector;rounded=1;html=1;exitX=1;exitY=0.75;exitDx=0;exitDy=0;exitPerimeter=0;labelBackgroundColor=default;strokeWidth=2;fontFamily=Times New Roman;fontSize=11;fontColor=default;endArrow=diamond;endFill=1;entryX=0.25;entryY=0;entryDx=0;entryDy=0;startArrow=diamond;startFill=1;" parent="UHO9wcKawVJonvP0M0y3-5" source="UHO9wcKawVJonvP0M0y3-6" target="_UqJI40Slp0IW0CAB3TJ-4" edge="1">
                    <mxGeometry relative="1" as="geometry">
                        <Array as="points">
                            <mxPoint x="80" y="-65"/>
                        </Array>
                        <mxPoint x="100" y="-82.5" as="targetPoint"/>
                    </mxGeometry>
                </mxCell>
                <mxCell id="2" style="edgeStyle=none;html=1;entryX=0;entryY=0.5;entryDx=0;entryDy=0;startArrow=diamond;startFill=1;endArrow=diamond;endFill=1;strokeWidth=2;fontFamily=Times New Roman;" parent="UHO9wcKawVJonvP0M0y3-5" source="UHO9wcKawVJonvP0M0y3-6" target="_UqJI40Slp0IW0CAB3TJ-16" edge="1">
                    <mxGeometry relative="1" as="geometry">
                        <Array as="points">
                            <mxPoint x="180" y="-80"/>
                        </Array>
                    </mxGeometry>
                </mxCell>
                <mxCell id="UHO9wcKawVJonvP0M0y3-6" value="I2C GPIO Extender&lt;br&gt;w/ pulldowns" style="rounded=0;whiteSpace=wrap;html=1;fontFamily=Times New Roman;dashed=1;" parent="UHO9wcKawVJonvP0M0y3-5" vertex="1">
                    <mxGeometry x="-90" y="-110" width="120" height="60" as="geometry"/>
                </mxCell>
                <mxCell id="UHO9wcKawVJonvP0M0y3-23" value="Memory module" style="rounded=0;whiteSpace=wrap;html=1;fontFamily=Times New Roman;" parent="UHO9wcKawVJonvP0M0y3-5" vertex="1">
                    <mxGeometry x="50" y="50" width="120" height="60" as="geometry"/>
                </mxCell>
                <mxCell id="22ypedtZLx-DCweqtDK7-3" style="edgeStyle=none;shape=connector;rounded=1;html=1;labelBackgroundColor=default;strokeWidth=2;fontFamily=Times New Roman;fontSize=11;fontColor=default;endArrow=diamondThin;endFill=0;exitX=1;exitY=0.75;exitDx=0;exitDy=0;entryX=0.5;entryY=0;entryDx=0;entryDy=0;startArrow=diamondThin;startFill=0;" parent="UHO9wcKawVJonvP0M0y3-5" source="UHO9wcKawVJonvP0M0y3-25" target="_UqJI40Slp0IW0CAB3TJ-4" edge="1">
                    <mxGeometry relative="1" as="geometry">
                        <Array as="points">
                            <mxPoint x="110" y="-147"/>
                        </Array>
                        <mxPoint x="140" y="-23.87931034482758" as="targetPoint"/>
                    </mxGeometry>
                </mxCell>
                <mxCell id="3" style="edgeStyle=none;html=1;exitX=1;exitY=0.5;exitDx=0;exitDy=0;entryX=0.75;entryY=0;entryDx=0;entryDy=0;strokeWidth=2;startArrow=diamondThin;startFill=0;endArrow=diamondThin;endFill=0;fontFamily=Times New Roman;" parent="UHO9wcKawVJonvP0M0y3-5" source="UHO9wcKawVJonvP0M0y3-25" target="_UqJI40Slp0IW0CAB3TJ-16" edge="1">
                    <mxGeometry relative="1" as="geometry">
                        <Array as="points">
                            <mxPoint x="280" y="-162.5"/>
                        </Array>
                    </mxGeometry>
                </mxCell>
                <mxCell id="UHO9wcKawVJonvP0M0y3-25" value="I2C bus switch" style="rounded=0;whiteSpace=wrap;html=1;fontFamily=Times New Roman;dashed=1;" parent="UHO9wcKawVJonvP0M0y3-5" vertex="1">
                    <mxGeometry x="-90" y="-192.5" width="120" height="60" as="geometry"/>
                </mxCell>
                <mxCell id="3H_iEBS_Q7Mxzxhc0dTc-3" value="" style="group;strokeWidth=2;fontFamily=Times New Roman;" parent="UHO9wcKawVJonvP0M0y3-5" vertex="1" connectable="0">
                    <mxGeometry x="-280" y="-250" width="160" height="460" as="geometry"/>
                </mxCell>
                <mxCell id="3H_iEBS_Q7Mxzxhc0dTc-2" value="Main Energy Harvesting&lt;br&gt;System Power Domain" style="rounded=0;whiteSpace=wrap;html=1;verticalAlign=top;strokeWidth=2;points=[[0,0,0,0,0],[0,0.25,0,0,0],[0,0.5,0,0,0],[0,0.75,0,0,0],[0,1,0,0,0],[0.25,0,0,0,0],[0.25,1,0,0,0],[0.5,0,0,0,0],[0.5,1,0,0,0],[0.75,0,0,0,0],[0.75,1,0,0,0],[1,0,0,0,0],[1,0.13,0,0,0],[1,0.25,0,0,0],[1,0.5,0,0,0],[1,0.75,0,0,0],[1,1,0,0,0]];fontFamily=Times New Roman;" parent="3H_iEBS_Q7Mxzxhc0dTc-3" vertex="1">
                    <mxGeometry width="160" height="460" as="geometry"/>
                </mxCell>
                <mxCell id="UHO9wcKawVJonvP0M0y3-16" value="nRF SoC" style="rounded=0;whiteSpace=wrap;html=1;strokeWidth=1;points=[[0,0,0,0,0],[0,0.25,0,0,0],[0,0.5,0,0,0],[0,0.75,0,0,0],[0,1,0,0,0],[0.25,0,0,0,0],[0.25,1,0,0,0],[0.5,0,0,0,0],[0.5,1,0,0,0],[0.75,0,0,0,0],[0.75,1,0,0,0],[1,0,0,0,0],[1,0.25,0,0,0],[1,0.38,0,0,0],[1,0.5,0,0,0],[1,0.63,0,0,0],[1,0.75,0,0,0],[1,1,0,0,0]];fontFamily=Times New Roman;dashed=1;" parent="3H_iEBS_Q7Mxzxhc0dTc-3" vertex="1">
                    <mxGeometry x="80" y="57.5" width="80" height="162.91666666666669" as="geometry"/>
                </mxCell>
                <mxCell id="_UqJI40Slp0IW0CAB3TJ-0" value="Raspberry Pi" style="rounded=0;whiteSpace=wrap;html=1;strokeWidth=1;points=[[0,0,0,0,0],[0,0.25,0,0,0],[0,0.5,0,0,0],[0,0.75,0,0,0],[0,1,0,0,0],[0.25,0,0,0,0],[0.25,1,0,0,0],[0.5,0,0,0,0],[0.5,1,0,0,0],[0.75,0,0,0,0],[0.75,1,0,0,0],[1,0,0,0,0],[1,0.25,0,0,0],[1,0.38,0,0,0],[1,0.5,0,0,0],[1,0.63,0,0,0],[1,0.75,0,0,0],[1,1,0,0,0]];fontFamily=Times New Roman;" parent="3H_iEBS_Q7Mxzxhc0dTc-3" vertex="1">
                    <mxGeometry x="80" y="268.33333333333337" width="80" height="162.91666666666669" as="geometry"/>
                </mxCell>
                <mxCell id="3H_iEBS_Q7Mxzxhc0dTc-49" style="edgeStyle=none;shape=connector;rounded=1;html=1;exitX=0.5;exitY=1;exitDx=0;exitDy=0;labelBackgroundColor=default;strokeWidth=2;fontFamily=Times New Roman;fontSize=11;fontColor=default;endArrow=diamondThin;endFill=0;startArrow=diamondThin;startFill=0;" parent="UHO9wcKawVJonvP0M0y3-5" edge="1">
                    <mxGeometry relative="1" as="geometry">
                        <mxPoint x="-80" y="235" as="sourcePoint"/>
                        <mxPoint x="43.200032552083314" y="235" as="targetPoint"/>
                    </mxGeometry>
                </mxCell>
                <mxCell id="3H_iEBS_Q7Mxzxhc0dTc-52" style="edgeStyle=none;shape=connector;rounded=1;html=1;labelBackgroundColor=default;strokeWidth=2;fontFamily=Times New Roman;fontSize=11;fontColor=default;endArrow=diamond;endFill=1;startArrow=diamond;startFill=1;" parent="UHO9wcKawVJonvP0M0y3-5" edge="1">
                    <mxGeometry relative="1" as="geometry">
                        <mxPoint x="50" y="235" as="sourcePoint"/>
                        <mxPoint x="168.46406249999995" y="235" as="targetPoint"/>
                    </mxGeometry>
                </mxCell>
                <mxCell id="3H_iEBS_Q7Mxzxhc0dTc-54" value="Board-level&lt;br&gt;Communication" style="text;html=1;align=center;verticalAlign=top;resizable=0;points=[];autosize=1;fontFamily=Times New Roman;" parent="UHO9wcKawVJonvP0M0y3-5" vertex="1">
                    <mxGeometry x="-70" y="230" width="100" height="40" as="geometry"/>
                </mxCell>
                <mxCell id="3H_iEBS_Q7Mxzxhc0dTc-55" value="Power Control" style="text;html=1;align=center;verticalAlign=top;resizable=0;points=[];autosize=1;fontFamily=Times New Roman;" parent="UHO9wcKawVJonvP0M0y3-5" vertex="1">
                    <mxGeometry x="65" y="235" width="90" height="30" as="geometry"/>
                </mxCell>
                <mxCell id="22ypedtZLx-DCweqtDK7-1" style="edgeStyle=none;shape=connector;rounded=1;html=1;entryX=0;entryY=0.5;entryDx=0;entryDy=0;labelBackgroundColor=default;strokeWidth=2;fontFamily=Times New Roman;fontSize=11;fontColor=default;endArrow=diamondThin;endFill=0;startArrow=diamondThin;startFill=0;exitX=1.014;exitY=0.689;exitDx=0;exitDy=0;exitPerimeter=0;" parent="UHO9wcKawVJonvP0M0y3-5" source="UHO9wcKawVJonvP0M0y3-16" target="UHO9wcKawVJonvP0M0y3-6" edge="1">
                    <mxGeometry relative="1" as="geometry">
                        <Array as="points"/>
                        <mxPoint x="-110" y="-50" as="sourcePoint"/>
                    </mxGeometry>
                </mxCell>
                <mxCell id="22ypedtZLx-DCweqtDK7-2" style="edgeStyle=none;shape=connector;rounded=1;html=1;entryX=0;entryY=0.5;entryDx=0;entryDy=0;labelBackgroundColor=default;strokeWidth=2;fontFamily=Times New Roman;fontSize=11;fontColor=default;endArrow=diamondThin;endFill=0;startArrow=diamondThin;startFill=0;exitX=1.031;exitY=0.18;exitDx=0;exitDy=0;exitPerimeter=0;" parent="UHO9wcKawVJonvP0M0y3-5" source="UHO9wcKawVJonvP0M0y3-16" target="UHO9wcKawVJonvP0M0y3-25" edge="1">
                    <mxGeometry relative="1" as="geometry">
                        <mxPoint x="-100" y="-160" as="sourcePoint"/>
                        <Array as="points"/>
                    </mxGeometry>
                </mxCell>
                <mxCell id="_UqJI40Slp0IW0CAB3TJ-3" style="edgeStyle=none;shape=connector;rounded=1;html=1;labelBackgroundColor=default;strokeWidth=2;fontFamily=Times New Roman;fontSize=11;fontColor=default;endArrow=diamondThin;endFill=0;entryX=0.5;entryY=0;entryDx=0;entryDy=0;exitX=0.5;exitY=1;exitDx=0;exitDy=0;startArrow=diamondThin;startFill=0;" parent="UHO9wcKawVJonvP0M0y3-5" source="_UqJI40Slp0IW0CAB3TJ-4" target="UHO9wcKawVJonvP0M0y3-23" edge="1">
                    <mxGeometry relative="1" as="geometry">
                        <mxPoint x="170" y="10" as="sourcePoint"/>
                        <mxPoint x="160" y="100" as="targetPoint"/>
                        <Array as="points"/>
                    </mxGeometry>
                </mxCell>
                <mxCell id="_UqJI40Slp0IW0CAB3TJ-4" value="I2C bus multiplexer" style="rounded=0;whiteSpace=wrap;html=1;fontFamily=Times New Roman;dashed=1;" parent="UHO9wcKawVJonvP0M0y3-5" vertex="1">
                    <mxGeometry x="50" y="-30" width="120" height="60" as="geometry"/>
                </mxCell>
                <mxCell id="_UqJI40Slp0IW0CAB3TJ-8" style="edgeStyle=none;shape=connector;rounded=1;html=1;labelBackgroundColor=default;strokeWidth=2;fontFamily=Times New Roman;fontSize=11;fontColor=default;endArrow=diamondThin;endFill=0;exitX=1;exitY=0.5;exitDx=0;exitDy=0;exitPerimeter=0;entryX=0;entryY=0.5;entryDx=0;entryDy=0;startArrow=diamondThin;startFill=0;" parent="UHO9wcKawVJonvP0M0y3-5" source="_UqJI40Slp0IW0CAB3TJ-0" target="_UqJI40Slp0IW0CAB3TJ-4" edge="1">
                    <mxGeometry relative="1" as="geometry">
                        <mxPoint x="-90" y="120" as="sourcePoint"/>
                        <mxPoint x="10" y="120" as="targetPoint"/>
                        <Array as="points">
                            <mxPoint x="-90" y="100"/>
                            <mxPoint x="-90"/>
                        </Array>
                    </mxGeometry>
                </mxCell>
                <mxCell id="_UqJI40Slp0IW0CAB3TJ-11" value="TEC device" style="rounded=0;whiteSpace=wrap;html=1;fontFamily=Times New Roman;" parent="UHO9wcKawVJonvP0M0y3-5" vertex="1">
                    <mxGeometry x="190" y="50" width="120" height="60" as="geometry"/>
                </mxCell>
                <mxCell id="_UqJI40Slp0IW0CAB3TJ-13" value="TEC Driver" style="rounded=0;whiteSpace=wrap;html=1;fontFamily=Times New Roman;" parent="UHO9wcKawVJonvP0M0y3-5" vertex="1">
                    <mxGeometry x="50" y="131.25" width="120" height="60" as="geometry"/>
                </mxCell>
                <mxCell id="_UqJI40Slp0IW0CAB3TJ-14" style="edgeStyle=none;html=1;entryX=0;entryY=0.5;entryDx=0;entryDy=0;strokeWidth=2;endArrow=diamondThin;endFill=0;fontFamily=Times New Roman;startArrow=diamondThin;startFill=0;exitX=1;exitY=0.87;exitDx=0;exitDy=0;exitPerimeter=0;" parent="UHO9wcKawVJonvP0M0y3-5" source="_UqJI40Slp0IW0CAB3TJ-0" target="_UqJI40Slp0IW0CAB3TJ-13" edge="1">
                    <mxGeometry relative="1" as="geometry">
                        <Array as="points"/>
                        <mxPoint x="-70" y="130" as="sourcePoint"/>
                    </mxGeometry>
                </mxCell>
                <mxCell id="_UqJI40Slp0IW0CAB3TJ-15" style="edgeStyle=none;shape=connector;rounded=1;html=1;labelBackgroundColor=default;strokeWidth=2;fontFamily=Times New Roman;fontSize=11;fontColor=default;endArrow=diamond;endFill=1;exitX=1;exitY=0.5;exitDx=0;exitDy=0;entryX=0.5;entryY=1;entryDx=0;entryDy=0;startArrow=diamond;startFill=1;" parent="UHO9wcKawVJonvP0M0y3-5" source="_UqJI40Slp0IW0CAB3TJ-13" target="_UqJI40Slp0IW0CAB3TJ-11" edge="1">
                    <mxGeometry relative="1" as="geometry">
                        <mxPoint x="-10" y="240" as="sourcePoint"/>
                        <mxPoint x="108.46406249999995" y="240" as="targetPoint"/>
                        <Array as="points">
                            <mxPoint x="250" y="161"/>
                        </Array>
                    </mxGeometry>
                </mxCell>
                <mxCell id="_UqJI40Slp0IW0CAB3TJ-16" value="Sensor network&lt;br&gt;With load switches" style="rounded=0;whiteSpace=wrap;html=1;fontFamily=Times New Roman;dashed=1;" parent="UHO9wcKawVJonvP0M0y3-5" vertex="1">
                    <mxGeometry x="190" y="-110" width="120" height="60" as="geometry"/>
                </mxCell>
                <mxCell id="4" value="" style="endArrow=none;html=1;strokeWidth=2;fontFamily=Times New Roman;" parent="UHO9wcKawVJonvP0M0y3-5" edge="1">
                    <mxGeometry width="50" height="50" relative="1" as="geometry">
                        <mxPoint x="140" y="-75" as="sourcePoint"/>
                        <mxPoint x="150" y="-85" as="targetPoint"/>
                    </mxGeometry>
                </mxCell>
                <mxCell id="6" value="" style="endArrow=none;html=1;strokeWidth=2;fontFamily=Times New Roman;" parent="UHO9wcKawVJonvP0M0y3-5" edge="1">
                    <mxGeometry width="50" height="50" relative="1" as="geometry">
                        <mxPoint x="210" y="-157.5" as="sourcePoint"/>
                        <mxPoint x="220" y="-167.5" as="targetPoint"/>
                    </mxGeometry>
                </mxCell>
                <mxCell id="7" value="3 GPIOs" style="text;html=1;align=left;verticalAlign=bottom;resizable=0;points=[];autosize=1;strokeColor=none;fillColor=none;fontFamily=Times New Roman;" parent="UHO9wcKawVJonvP0M0y3-5" vertex="1">
                    <mxGeometry x="120" y="-110" width="70" height="30" as="geometry"/>
                </mxCell>
                <mxCell id="8" value="3 buses" style="text;html=1;align=left;verticalAlign=bottom;resizable=0;points=[];autosize=1;strokeColor=none;fillColor=none;fontFamily=Times New Roman;" parent="UHO9wcKawVJonvP0M0y3-5" vertex="1">
                    <mxGeometry x="190" y="-192.5" width="60" height="30" as="geometry"/>
                </mxCell>
                <mxCell id="9" value="Raspberry Pi&amp;nbsp;&lt;br&gt;sensor network" style="rounded=0;whiteSpace=wrap;html=1;fontFamily=Times New Roman;" vertex="1" parent="UHO9wcKawVJonvP0M0y3-5">
                    <mxGeometry x="190" y="-30" width="120" height="60" as="geometry"/>
                </mxCell>
                <mxCell id="10" style="edgeStyle=none;html=1;exitX=1;exitY=0.63;exitDx=0;exitDy=0;exitPerimeter=0;entryX=0.5;entryY=1;entryDx=0;entryDy=0;startArrow=diamondThin;startFill=0;endArrow=diamondThin;endFill=0;strokeWidth=2;" edge="1" parent="UHO9wcKawVJonvP0M0y3-5" source="_UqJI40Slp0IW0CAB3TJ-0" target="9">
                    <mxGeometry relative="1" as="geometry">
                        <Array as="points">
                            <mxPoint x="180" y="121"/>
                            <mxPoint x="180" y="40"/>
                            <mxPoint x="250" y="40"/>
                        </Array>
                    </mxGeometry>
                </mxCell>
            </root>
        </mxGraphModel>
    </diagram>
</mxfile>